<svg xmlns="http://www.w3.org/2000/svg" viewBox="0 0 110.785 126.749"><path d="M86.3 260.2c-.546-.129-1.617-.55-2.38-.937-3.622-1.835-7.182-7.653-6.733-11.003.082-.612.082-1.451 0-1.865-.125-.623-.268-.739-.832-.672-.62.073-.76-.103-1.525-1.904-1-2.356-1.333-4.213-.9-5.022.415-.774 2.571-1.674 3.548-1.479.692.138 1.036-.111 3.571-2.586 2.474-2.415 3.18-2.933 5.96-4.38 1.735-.901 3.556-1.991 4.047-2.422 1.082-.951 3.398-2.142 5.367-2.76l1.455-.457.04-2.42c.047-2.792.668-5.138 3.196-12.076 1.44-3.954 1.578-4.516 1.467-5.953-.09-1.175.09-2.513.696-5.146.45-1.957.819-3.93.819-4.384 0-1.374.803-3.363 1.886-4.673 1.125-1.36 1.2-1.594.657-2.045-.596-.495-.81-3.073-.313-3.782.457-.652.563-1.391.164-1.145-.338.209-.705-.545-.931-1.909-.103-.618-.297-1.191-.432-1.275a.297.297 0 0 1-.087-.41c.088-.142.02-.426-.15-.63-.239-.289-.219-.542.09-1.114.219-.407.532-1.787.695-3.066.292-2.296 1.526-6.34 2.308-7.562.22-.345.613-1.654.872-2.91.716-3.464 2.334-8.545 2.92-9.17.288-.305.523-.866.523-1.245 0-1.55 4.748-4.463 8.24-5.056 1.793-.305 1.8-.31 3-1.96 1.01-1.388 1.328-1.653 1.99-1.653.636 0 .79-.114.799-.595.064-3.18.356-5.77.68-6.04.205-.17.372-.429.372-.575 0-.147.417-.728.926-1.291.51-.564.926-1.142.926-1.284 0-.374 1.765-1.204 3.357-1.578 3.183-.75 7.336 1.147 8.896 4.062.497.928.58 1.504.58 4.02 0 2.03-.107 3.064-.347 3.353-.264.318-.281.657-.072 1.434.364 1.353.032 2.51-.843 2.935-.777.377-1.511 1.331-2.036 2.647-.368.924-.968 1.379-1.816 1.379-.898 0-.284 1.724 1.12 3.15 1.446 1.467 1.847 2.596 2.29 6.441l.327 2.844 1.482.001c.815 0 3.179.079 5.252.174 3.273.15 3.77.12 3.77-.23 0-.277.379-.454 1.219-.569.67-.092 1.297-.118 1.394-.058.098.06.71.187 1.362.282.652.094 1.632.27 2.178.39.574.127 1.41.11 1.984-.04 2.014-.524 2.447-.54 3.1-.112.358.235 1.102.428 1.653.43.55.002 1.645.174 2.43.384.787.209 1.501.372 1.588.362.087-.01 1.143-.004 2.345.013l2.188.032.42.883c.551 1.155 1.552 1.498 4.369 1.498 2.151 0 2.27-.031 2.792-.738.3-.406.63-1.12.732-1.588.166-.754.288-.85 1.092-.85h.905v1.72c0 1.265.094 1.72.356 1.72.478 0 1.231.862 1.231 1.41 0 .305-.225.444-.727.447-.4.002-1.148.15-1.66.33-.666.233-2.106.283-5.028.174-4.22-.157-10.896-.106-12.296.095-.437.063-1.593.2-2.57.305a9.684 9.684 0 0 0-3.29.964c-1.229.628-1.847.773-3.291.773-1.2 0-2.411.215-3.722.66-1.07.363-1.975.66-2.014.661-.038.001.102.412.311.912.523 1.25 2.234 3.519 3.556 4.712.604.545 1.098 1.18 1.098 1.412 0 .609-2.645 4.343-3.076 4.343-.2 0-.364-.091-.364-.203 0-.112-.602-.678-1.34-1.257-1.46-1.15-3.832-4.102-4.722-5.882-.629-1.256-.731-1.285-2.56-.73-1.809.548-2.611.5-4.105-.251-.713-.358-1.296-.534-1.296-.39 0 .143-.298.373-.663.512-.365.139-.633.366-.595.504.037.139-.328.548-.811.908-.712.531-1.026.614-1.654.434-.426-.122-.774-.167-.774-.1 0 .069-.236-.002-.523-.156-.452-.242-.545-.18-.684.454-.285 1.3-.354 1.395-1.02 1.395-.957 0-1.477.924-1.482 2.638-.003.805-.176 2.177-.387 3.05-.211.873-.388 1.983-.393 2.465-.005.483-.116 1.078-.246 1.323-.177.334.19 1.145 1.459 3.224 1.852 3.035 2.718 4.151 5.542 7.144 1.03 1.091 2.415 2.877 3.076 3.968a947.163 947.163 0 0 0 2.295 3.764c1.379 2.247 2.27 5.352 2.026 7.051l-.309 2.15c-.21 1.467-1.132 5.026-1.708 6.59-.306.833-.462 1.723-.373 2.13.11.498-.183 1.423-1.02 3.226-.645 1.39-1.314 3.23-1.488 4.088-.275 1.365-2.482 6.262-3.236 7.183-.15.182-.508.33-.796.33-.308 0-.476.138-.406.332.065.181.283.896.483 1.587l.363 1.257h2.205c1.432 0 2.47.137 2.964.393.913.472 1.86 1.732 1.86 2.476 0 .297.119.613.264.703.44.272.303 1.87-.198 2.296-.969.825-2.291 1.121-4.95 1.109-2.17-.01-3.045-.144-4.774-.73-1.164-.394-2.618-1.072-3.231-1.507-.613-.435-1.536-.966-2.05-1.181-.924-.386-.936-.383-.936.258 0 .357-.12.723-.265.813-.366.226-4.686-.608-5.6-1.081-1.331-.688-1.585-1.358-1.147-3.027.209-.797.603-1.63.875-1.853.386-.316.533-.924.672-2.778.373-4.965.694-6.582 1.651-8.304.676-1.215 1.322-3.702 1.72-6.623.324-2.37.932-4.059 1.73-4.805 1.473-1.378 1.42-1.69-.73-4.273-.699-.84-1.721-2.297-2.272-3.238-.55-.941-1.074-1.713-1.164-1.716-.09-.003-.243.588-.34 1.313-.429 3.234-2.18 9.472-3.932 14-.87 2.253-5.478 6.454-9.823 8.957-.889.512-1.973 1.259-2.41 1.66-.436.4-1.21.936-1.72 1.19-.509.255-2.771 1.557-5.027 2.894-5.125 3.04-7.508 4.263-8.863 4.55-.834.176-1.154.414-1.507 1.122-.247.494-.574 1.024-.728 1.177-.564.564-.24 1.233 1.445 2.986 1.825 1.898 2.454 3.272 2.09 4.565-.108.38-.17.846-.138 1.035.084.501-1.013 2.17-1.427 2.17-.194 0-.512.048-.706.106-.194.058-.8 0-1.345-.128zm57.049-86.364c.18-.47-.054-1.19-.389-1.19-.13 0-.238.09-.24.198-.003.11-.075.467-.163.794-.184.688.535.868.792.198zm29.183-3.902c-.073-.182-.133-.033-.133.33 0 .364.06.513.133.331.074-.182.074-.48 0-.661z" style="fill:#000;stroke-width:.26458332" transform="translate(-73.744 -133.602)"/></svg>