<svg xmlns="http://www.w3.org/2000/svg" viewBox="0 0 108.109 90.97"><path d="M11.765 90.618c-1.947-.424-2.808-.846-4.351-2.136-2.03-1.696-3.26-3.89-3.62-6.463-.183-1.311-.274-1.467-.932-1.588-.527-.097-1.018-.572-1.781-1.722-1.48-2.227-1.45-3.185.149-5.056.662-.776 1.522-1.562 1.91-1.75.389-.185.84-.606 1.004-.934.164-.328.985-1.09 1.826-1.691 2.02-1.446 7.69-3.34 10.647-3.556 1.504-.11 2.563-.374 3.914-.978 1.018-.455 2.328-.895 2.91-.977l1.058-.15-.068-1.295c-.038-.712-.318-2.376-.624-3.698-.443-1.92-.73-2.59-1.42-3.33-.477-.51-1.141-1.64-1.476-2.514-.6-1.564-.676-2.543-.768-9.988-.006-.47-.151-.727-.41-.727-.647 0-1.482-1.6-1.294-2.48.242-1.123 1.543-3.54 2.796-5.19.606-.797 1.447-2.19 1.87-3.093.662-1.413.723-1.726.44-2.252-.18-.336-.295-.643-.26-.681.039-.04-.01-.536-.106-1.105-.211-1.25.168-2.066 1.066-2.291.434-.11.703-.401.795-.863.272-1.362 1.48-3.406 3.082-5.215 1.956-2.21 5.527-4.72 6.46-4.541.37.07.767-.047.962-.285.669-.815 5.746-3.965 7.707-4.782 1.11-.462 2.524-.877 3.142-.922.62-.046 1.318-.17 1.555-.273.973-.43 7.157-.136 8.183.388.927.473 1.376-.497 1.954-4.214.1-.65 3.874-3.944 4.71-4.11 1.214-.244 4.383-.19 4.9.08a99.7 99.7 0 0 0 2.01.985c2.79 1.337 4.116 3.658 3.96 6.936-.094 2.009-.476 3.565-1.165 4.753-.285.49-.508 1.37-.508 2.004 0 1.287-.413 1.757-2.44 2.776-.687.345-1.315.836-1.396 1.09-.361 1.139-1.905 1.807-3.113 1.348l-.641-.244.112 2.028c.17 3.05 1.828 7.638 2.835 7.845.298.062 1.949.155 3.668.208 2.77.086 3.153.044 3.374-.37.21-.39.536-.448 2.048-.36.99.057 2.09.212 2.446.344.356.133.856.21 1.11.17.256-.04.464.029.464.153 0 .242.87.14 1.354-.16.418-.258 3.144-.335 3.144-.09 0 .297.715.48 2.517.65l2.113.202c.29.028.6.146.685.262.085.116 1.43.283 2.99.372 2.802.158 2.84.17 3.236.934.542 1.048 1.632 1.442 4.532 1.64 2.338.159 2.448.142 2.448-.37 0-.296.096-.538.215-.538.118 0 .382-.426.587-.947.406-1.036.939-1.443 1.73-1.324.442.066.51.3.51 1.738 0 1.458.07 1.688.569 1.873 1.144.424 1.394 1.507.4 1.73a49.63 49.63 0 0 0-1.96.515c-.692.196-1.258.273-1.258.17-.003-.46-15.735-.551-18.256-.106a61.57 61.57 0 0 1-2.848.437c-.62.073-1.357.255-1.636.405-.28.15-1.413.272-2.52.272-1.262 0-2.228.137-2.596.369-.323.203-1.27.449-2.104.547-.834.099-1.59.297-1.68.44-.434.706 1.826 4.306 3.84 6.118.739.663 1.342 1.293 1.342 1.4 0 .39-3.004 4.355-3.3 4.355-.165 0-.88-.537-1.584-1.194-.705-.657-1.324-1.153-1.376-1.101-.05.05.03.737.18 1.525.15.787.346 2.92.435 4.739.089 1.819.275 3.452.415 3.63.23.292.096 2.22-.253 3.646-.072.29-.16 2.077-.197 3.969-.1 5.17-.502 7.63-1.418 8.678-.382.437-.363.576.232 1.683.356.663.818 1.273 1.026 1.355.208.083 1.16-.05 2.117-.295.956-.245 2.036-.444 2.4-.443.858.004 2.259.865 2.672 1.64.179.336.494.735.7.887.206.152.395.68.42 1.173.038.772-.102.993-1.014 1.605-3.122 2.093-8.393 2.597-12.664 1.212-2.38-.772-2.55-.76-2.887.2-.045.128-1.308.232-2.806.232-2.3 0-2.833-.08-3.428-.523-.87-.646-1.083-2.172-.442-3.15.39-.597.393-.827.03-2.56-.776-3.706-1.012-6.34-.716-8.008.366-2.065.353-5.076-.033-7.465-.3-1.85-.14-3.633.462-5.151.144-.364.047-.463-.453-.463-.35 0-1.758-.352-3.128-.781-1.37-.43-2.534-.74-2.586-.686-.052.052.077.433.288.847.21.414.465 1.02.566 1.347.16.516.088.596-.527.596-.526 0-1.156-.455-2.433-1.757l-1.723-1.758-1.752-.12c-.963-.066-2.198-.215-2.743-.331-.546-.116-.992-.126-.992-.021 0 .104.463 2.086 1.029 4.403 1.17 4.793 1.52 9.19.968 12.133-.281 1.495-.527 1.926-2.412 4.23-1.98 2.42-2.245 2.639-4.684 3.878-1.898.964-3.26 1.446-5.122 1.813-1.394.274-2.666.629-2.825.788-.587.587-11.196.27-13.477-.403-.37-.108-.453.015-.417.61.056.917.83 1.826 2.12 2.487 1.207.62 2.33 2.047 2.33 2.963 0 .378.119.76.265.85.393.244.32 1.523-.124 2.157-.768 1.097-4.038 1.44-7.187.756zm55.863-48.223a41.705 41.705 0 0 1-.44-1.157c-.208-.575-.457-.718-1.433-.828-.65-.074-1.652-.446-2.23-.827-1.29-.853-2.277-.907-2.521-.138-.238.75-.07.874 2.467 1.807 1.207.445 2.517.983 2.91 1.197.997.54 1.48.52 1.247-.054zm-1.721-4.828c0-.291.009-.616.02-.721.01-.106-.1-.231-.243-.28-.32-.106-.67.893-.44 1.263.278.45.663.297.663-.262z" style="fill:#000;stroke-width:.26458332"/></svg>