<svg xmlns="http://www.w3.org/2000/svg" viewBox="0 0 88.764 131.114"><path d="M5.805 130.611c-2.459-1.396-3.35-2.546-3.789-4.883-.096-.513-.443-1.223-.771-1.576-.742-.8-1.37-3.228-1.224-4.728.121-1.24.284-4.173.36-6.483.08-2.399.179-2.843 1.068-4.762.54-1.164 1.097-2.324 1.238-2.576.14-.253.256-1.24.256-2.194 0-1.717.727-3.83 1.318-3.83.137 0 .377-.505.533-1.124.156-.618.394-1.388.53-1.71.172-.41.142-.69-.1-.932-1.042-1.042-1.263-2.339-.529-3.112.94-.99 1.952-2.494 1.952-2.9 0-.245.195-1.018.434-1.718.402-1.18.402-1.291 0-1.516-.239-.133-.434-.413-.434-.62 0-.416 1.813-4.411 2.097-4.623.19-.142 1.009-2.87 1.192-3.97.06-.363.405-1.673.766-2.91.402-1.38.73-3.371.848-5.159.245-3.694.33-4.617.495-5.37.188-.86-.155-1.618-.902-1.99-1.468-.732-1.285-3.267.502-6.97.87-1.8 1.413-3.918 1.394-5.43-.003-.245-.252-.691-.553-.992-.412-.412-.547-.885-.547-1.915 0-.897-.15-1.534-.434-1.848-.238-.263-.469-.927-.512-1.476-.044-.548-.279-2.156-.523-3.573-.443-2.573-.443-2.579.178-4.366.342-.984.832-1.944 1.089-2.134.256-.19.467-.479.467-.641 0-.162.173-.486.385-.72.212-.235.677-1.91 1.033-3.726.686-3.49 1.465-5.874 2.417-7.4.318-.51.656-1.244.752-1.633.488-1.976 5.422-4.543 8.649-4.5 1.71.023 1.65.056 3.13-1.738.651-.79 1.363-1.39 1.65-1.39.277 0 .52-.089.538-.198.132-.773.2-1.55.324-3.67.15-2.567.268-2.848 2.25-5.307C35.134.06 38.566-.618 41.944.594c2.135.766 3.165 1.622 3.994 3.316 1.118 2.284 1.29 6.154.354 7.907-.165.309-.158.774.019 1.323.15.466.24 1.026.198 1.244-.202 1.076-.516 1.588-.976 1.588-.277 0-.642.267-.812.595a4.89 4.89 0 0 1-.791 1.057c-.265.254-.557.867-.65 1.362-.153.818-.024 1.073 1.413 2.784 1.887 2.248 2.233 3.339 2.189 6.902l-.031 2.513 2.321.078c1.277.042 3.066.128 3.976.19 1.533.104 1.653.072 1.653-.437 0-.528.1-.544 2.58-.41 1.419.076 2.877.245 3.241.375.364.13.78.22.926.2.146-.018.98-.137 1.852-.263 1.703-.244 2.67-.204 3.313.138.221.118 1.15.281 2.063.363.914.08 1.804.24 1.98.354.174.113 1.032.217 1.905.23 4.064.063 3.96.04 4.284.9.397 1.053 1.18 1.306 4.293 1.388 2.495.066 2.628.041 3.156-.592.304-.364.556-.878.561-1.142.017-.923.53-1.504 1.33-1.504.768 0 .772.008.85 1.775.071 1.625.131 1.787.711 1.923.348.082.726.4.84.708.183.495.09.578-.81.722-.558.09-1.065.312-1.126.494-.082.244-.831.308-2.867.242-1.516-.049-3.113-.08-3.55-.069a78.83 78.83 0 0 1-2.777-.03c-3.76-.093-7.546.03-9.658.313-1.164.157-2.474.321-2.91.366-.437.044-1.426.404-2.198.8-1.036.53-1.937.753-3.44.853-2.442.163-3.268.448-4.742 1.638-1.157.934-1.194 1.23-.271 2.223.183.197.744.89 1.247 1.542.503.651 1.151 1.356 1.44 1.565 1.005.73 1.478 1.34 1.406 1.81-.062.408-1.07 2.048-1.5 2.44-.079.072-.34.48-.579.906-.41.732-1.285 1.179-1.285.656 0-.134-.322-.51-.716-.837-2.218-1.837-3.617-3.367-4.464-4.882-.743-1.329-1.05-1.662-1.392-1.515-1.672.715-2.347.737-3.853.126-.897-.364-1.798-.972-2.244-1.512l-.744-.903-.879.74c-1.554 1.307-2.08 1.957-2.163 2.678-.05.428-.316.809-.677.967-.658.289-.793.665-.24.665.674 0 1.342 1.045 1.277 1.998-.033.502.048.912.18.912.394 0 .902 2.399.849 4.002-.048 1.427-.02 1.496.694 1.675 1.453.365 1.792 1.087.901 1.92-.278.26-.755 1.128-1.06 1.928-.535 1.4-.538 1.488-.096 2.316.253.472.552.86.664.86.113 0 .205.148.205.33 0 .182.369.748.819 1.257.8.907 4.737 6.734 4.737 7.013 0 .078.476 1.134 1.058 2.348.582 1.214 1.059 2.348 1.059 2.519 0 .172.256.813.569 1.426.627 1.227 1.8 4.705 1.937 5.744.048.364.162 2.15.253 3.969.2 3.969.397 5.58.735 6.006.244.307.313 1.704.217 4.445-.026.727.035 1.858.133 2.513.1.655.174 1.37.166 1.588-.008.218.106 1.35.253 2.513.166 1.31.176 2.366.025 2.772-.167.45-.13.926.122 1.527.241.579.281 1.027.119 1.332-.177.33-.102.637.27 1.096.283.35.458.787.387.97-.22.572.417.812 2.953 1.113 1.348.16 2.559.358 2.69.44.133.082.455.713.715 1.403.26.69.627 1.41.815 1.603.451.463.43 1.124-.057 1.82-.505.721-3.4 1.394-5.423 1.26-2.808-.185-6.185-1.307-8.808-2.926-1.39-.858-1.628-.927-2.185-.63-.76.407-3.07.186-4.644-.444l-1.084-.434.175-1.747c.096-.96.187-1.89.202-2.066.015-.175.176-.376.357-.445.31-.12.149-1.442-.344-2.807-.148-.41-.197-.735-.472-3.133-.09-.777-.267-1.69-.396-2.028-.342-.9-.37-3.83-.047-4.834.154-.477.238-1.084.187-1.349a45.393 45.393 0 0 1-.272-1.89c-.098-.774-.298-1.715-.443-2.09-.252-.649-.384-4.733-.18-5.578.077-.324-.17-.38-1.326-.31-1.302.082-1.494.017-2.315-.779-.492-.477-.895-.954-.895-1.06 0-.107-.41-.888-.912-1.735-.502-.847-1.283-2.552-1.736-3.79-1.114-3.042-2.263-5.006-2.94-5.022-.248-.006-.506 2.316-.642 5.77-.164 4.158-.345 5.276-1.334 8.249-.796 2.392-1.493 3.961-1.762 3.965-.11.003-.199.182-.199.4 0 .218-.09.397-.2.397-.11 0-.469.744-.798 1.654-.708 1.956-5.164 10.98-6.173 12.503-.387.583-.966 1.654-1.287 2.381-1.17 2.65-2.904 5.687-3.245 5.687-.35 0-1.79 2.439-1.79 3.031 0 .3.283.852.63 1.226.347.374.718 1.078.824 1.563.107.486.418 1.122.69 1.415.273.293.966 1.468 1.54 2.611.896 1.783 1.006 2.187.78 2.838-.536 1.535-1.86 2.105-5.487 2.362-2.263.16-2.567.125-3.524-.419zm61.829-96.383c.091-.148-.107-.263-.448-.26-.491.002-.533.053-.214.26.493.318.465.318.662 0z"/></svg>